<svg version="1.2" xmlns="http://www.w3.org/2000/svg" viewBox="0 0 500 500" width="300" height="300">
	<title>10135061</title>
	<style>
		tspan { white-space:pre } 
		.s0 { fill: #000000 } 
	</style>
	<g id="BACKGROUND">
	</g>
	<g id="OBJECT">
		<g id="&lt;Group&gt;">
			<g id="&lt;Group&gt;">
				<path id="&lt;Compound Path&gt;" fill-rule="evenodd" class="s0" d="m450.9 183.1c0-19.4-15.7-35.1-35.1-35.1h-143.6v25.9l-39.3-25.9h-155.9c-15.5 0-28 12.5-28 28v54.1 9.3 112.5h34.9v-84.4h0.2v-0.1h108.6v84.5h35v-165.4l44.5 29.5v107.8c0 15.5 12.6 28.1 28.1 28.1h150.6v-35.2h-38.5q-0.5 0.1-1 0.1h-99.7c-2.4 0-4.4-2-4.4-4.4v-73.3l43 28.4h51.1v-35.1h-40.6l-53.5-35.3v-14zm-366.8 49.4v-45c0-2.5 2-4.4 4.4-4.4h104.2v49.4z"/>
			</g>
		</g>
	</g>
	<g id="TEXT">
		<g id="&lt;Group&gt;">
			<text id="" style="transform: matrix(1,0,0,1,136.356,167.311)" >
			</text>
		</g>
		<g id="&lt;Group&gt;">
		</g>
	</g>
</svg>